<svg id="Layer_1" enable-background="new 0 0 512 512" height="512" viewBox="0 0 512 512" width="512" xmlns="http://www.w3.org/2000/svg"><g><path d="m421.946 441.996c45.385-44.469 73.557-106.439 73.557-174.998 0-135.311-109.691-245.002-245.002-245.002s-245.002 109.691-245.002 245.002c0 30.79 5.696 60.246 16.065 87.392z" fill="#49d88b"/><path d="m381.395 0h-318.858c-22.858 0-41.387 18.53-41.387 41.388v311.912c7.361 19.553 17.159 37.911 29.009 54.717l343.288 57.948c10.418-7.499 20.233-15.782 29.336-24.787v-399.79c0-22.858-18.53-41.388-41.388-41.388z" fill="#167cc1"/><path d="m157.101 415.984c-9.917-10.993-2.806-21.14.009-24.375.646-.742 1.008-1.686 1.008-2.669v-54.445c0-.981-.357-1.935-1.012-2.667-9.57-10.688-2.576-21.144.095-24.406.593-.725.917-1.626.917-2.562v-54.507c0-.991-.359-1.956-1.028-2.687-10.513-11.486-3.659-20.911-.409-24.292.898-.934 1.279-2.25 1.058-3.526l-16.755-96.695c-.139-.801-.527-1.537-1.09-2.124-22.066-22.988-8.567-45.561-3.172-52.751.937-1.249 1.157-2.939.432-4.322-1.292-2.464-.273-4.525.597-5.664.559-.732.893-1.611.893-2.533v-17.666c0-.793-.294-1.544-.759-2.186-1.495-2.062-1.166-4.13-.541-5.604.597-1.407.359-3.023-.622-4.195-8.696-10.397-3.833-19.391-.457-23.587.595-.74.88-1.632.881-2.52h-74.61c-22.857-.001-41.386 18.529-41.386 41.387v311.912c7.361 19.553 17.159 37.911 29.009 54.717l107.96 18.224v-7.583c0-.985-.358-1.943-1.018-2.674z" fill="#0e62a8"/><path d="m165.281 223.883c-44.688-54.431-93.811-48.001-115.93-41.032v224.029c44.266 63.534 117.846 105.12 201.15 105.12 53.856 0 103.642-17.391 144.08-46.844 0-40.274 0-99.241 0-159.691-5.812-4.68-11.799-10.084-17.983-16.268-60.528-60.528-110.447 57.55-211.317-65.314z" fill="#e9efff"/><path d="m157.898 475.288c.146-.425.221-.866.221-1.316v-55.314c0-.985-.358-1.943-1.018-2.674-9.917-10.993-2.806-21.14.009-24.375.646-.742 1.008-1.686 1.008-2.669v-54.445c0-.981-.357-1.935-1.012-2.667-9.57-10.688-2.576-21.144.095-24.406.593-.725.917-1.626.917-2.562v-54.507c0-.991-.359-1.956-1.028-2.687-10.513-11.486-3.659-20.911-.409-24.292.898-.934 1.279-2.25 1.058-3.526l-.963-5.555c-42.275-44.027-86.703-37.972-107.426-31.442v224.029c27.549 39.541 66.454 70.577 111.989 88.382-6.545-8.899-4.233-17.66-3.441-19.974z" fill="#d3dcfb"/><g><g><path d="m165.281 225.973c100.869 122.863 150.788 4.785 211.317 65.314 6.184 6.184 12.171 11.588 17.983 16.268v-243.722h-345.229v121.108c22.119-6.97 71.242-13.4 115.929 41.032z" fill="#9bd8f9"/></g></g><path d="m49.352 184.941c20.796-6.553 65.461-12.622 107.869 31.91l-16.235-93.698c-.139-.801-.527-1.537-1.09-2.124-22.066-22.988-8.567-45.561-3.172-52.751.937-1.249 1.157-2.939.432-4.322-.022-.042-.031-.082-.052-.123h-87.752z" fill="#73c3f9"/><g><path d="m332.192 222.034h-224.52c-5.292 0-9.622-4.33-9.622-9.622v-80.987c0-5.292 4.33-9.622 9.622-9.622h224.52c5.292 0 9.622 4.33 9.622 9.622v80.987c0 5.292-4.33 9.622-9.622 9.622z" fill="#4fabf7"/></g><path d="m176.716 203.631v-63.426c0-10.122 8.281-18.403 18.403-18.403h-87.447c-5.292 0-9.622 4.33-9.622 9.622v80.988c0 5.292 4.33 9.622 9.622 9.622h87.447c-10.122 0-18.403-8.282-18.403-18.403z" fill="#1e9ef4"/><g><path d="m381.396 28.202h-318.858c-7.253 0-13.187 5.934-13.187 13.187v24.534h345.229v-24.535c.001-7.252-5.933-13.186-13.184-13.186z" fill="#2a428c"/></g><path d="m137.156 63.957c-1.292-2.464-.273-4.525.597-5.664.559-.732.893-1.611.893-2.533v-17.667c0-.793-.294-1.544-.759-2.186-1.495-2.062-1.166-4.13-.541-5.604.287-.676.376-1.4.287-2.101h-75.095c-7.252 0-13.187 5.934-13.187 13.187v24.534h88.221c.032-.673-.093-1.35-.416-1.966z" fill="#1c2e7a"/><g><path d="m92.121 47.062c0 5.673-4.599 10.271-10.271 10.271-5.673 0-10.271-4.599-10.271-10.271s4.599-10.271 10.271-10.271 10.271 4.598 10.271 10.271z" fill="#ff4155"/></g><g><path d="m120.519 47.062c0 5.673-4.599 10.271-10.271 10.271s-10.271-4.599-10.271-10.271 4.599-10.271 10.271-10.271 10.271 4.598 10.271 10.271z" fill="#ffdd40"/></g><g><path d="m148.917 47.062c0 5.673-4.598 10.271-10.271 10.271s-10.271-4.599-10.271-10.271 4.599-10.271 10.271-10.271 10.271 4.598 10.271 10.271z" fill="#38c674"/></g><g><path d="m285.706 54.896h-103.06c-4.327 0-7.834-3.507-7.834-7.834s3.507-7.834 7.834-7.834h103.059c4.327 0 7.834 3.507 7.834 7.834.001 4.327-3.507 7.834-7.833 7.834z" fill="#3c58a0"/></g><g><g><g><g><path d="m252.484 202.351c-4.327 0-7.834-3.507-7.834-7.834v-45.199c0-4.327 3.507-7.834 7.834-7.834s7.834 3.507 7.834 7.834v45.199c.001 4.327-3.507 7.834-7.834 7.834z" fill="#e9efff"/></g></g></g><g><g><g><path d="m304.344 202.351h-30.153c-2.874 0-5.518-1.574-6.887-4.102-1.37-2.527-1.246-5.601.324-8.009l21.56-33.088h-14.069c-4.327 0-7.834-3.507-7.834-7.834s3.507-7.834 7.834-7.834h28.524c6.212 0 9.953 6.909 6.563 12.111l-21.56 33.088h15.698c4.326 0 7.834 3.507 7.834 7.834s-3.508 7.834-7.834 7.834z" fill="#e9efff"/></g></g></g><g><g><g><path d="m214.63 202.351c-.013 0-.025 0-.037 0-11.576-.013-23.245-8.887-23.245-21.931v-31.102c0-4.327 3.508-7.834 7.834-7.834 4.327 0 7.834 3.507 7.834 7.834v31.102c0 1.583.262 3.06 3.474 5.112 1.209.772 2.557 1.149 4.123 1.151h.016c3.7 0 8.126-2.453 8.126-6.296v-31.07c0-4.327 3.507-7.834 7.834-7.834 4.326 0 7.834 3.507 7.834 7.834v31.07c0 13.137-11.869 21.964-23.793 21.964z" fill="#e9efff"/></g></g></g><g><g><g><path d="m175.353 199.874-14.46-14.459c-3.06-3.059-3.06-8.02 0-11.079 3.059-3.06 8.02-3.059 11.079-.001l14.46 14.459c3.06 3.059 3.06 8.02 0 11.079-3.058 3.06-8.018 3.06-11.079.001z" fill="#e9efff"/></g></g><g><g><path d="m158.119 202.351c-16.781 0-30.433-13.652-30.433-30.433 0-16.782 13.652-30.434 30.433-30.434s30.434 13.652 30.434 30.434c-.001 16.781-13.653 30.433-30.434 30.433zm0-45.199c-8.142 0-14.765 6.624-14.765 14.766s6.623 14.765 14.765 14.765 14.766-6.623 14.766-14.765c-.001-8.142-6.624-14.766-14.766-14.766z" fill="#e9efff"/></g></g></g></g><g><ellipse cx="408.985" cy="97.516" fill="#ffdd40" rx="97.516" ry="97.516" transform="matrix(.707 -.707 .707 .707 50.835 317.758)"/></g><path d="m311.47 97.516c0 53.856 43.659 97.516 97.516 97.516 25.175 0 48.12-9.541 65.421-25.203-.438-.588-1.038-1.055-1.76-1.309-5.092-1.795-6.031-6.219-5.99-9.392.024-1.877-1.356-3.508-3.207-3.82-7.448-1.255-9.104-6.393-9.343-9.881-.127-1.866-1.652-3.327-3.515-3.489-19.479-1.688-22.556-16.778-23.007-22.756-.113-1.503-1.082-2.798-2.496-3.322-5.206-1.93-17.567-6.564-25.26-9.851-7.803-3.335-6.319-20.367-5.318-27.549.249-1.785-.82-3.446-2.514-4.063-14.943-5.448-11.587-24.122-9.46-31.881.487-1.777-.328-3.679-1.993-4.468-6.117-2.899-5.822-8.895-4.892-12.681.432-1.758-.401-3.55-2.005-4.389-4.156-2.174-4.58-6.746-4.336-9.79.072-.902-.191-1.764-.689-2.463-33.714 15.349-57.152 49.332-57.152 88.791z" fill="#ffb332"/><g><ellipse cx="408.985" cy="97.516" fill="#e9efff" rx="72.937" ry="72.937" transform="matrix(.707 -.707 .707 .707 50.835 317.758)"/></g><path d="m457.069 152.334c-2.147-2.092-2.819-4.799-2.963-6.907-.127-1.866-1.652-3.327-3.515-3.489-19.479-1.688-22.556-16.778-23.007-22.756-.113-1.503-1.082-2.798-2.496-3.322-5.206-1.93-17.567-6.564-25.26-9.851-7.803-3.335-6.319-20.367-5.318-27.549.249-1.785-.82-3.446-2.514-4.063-14.943-5.448-11.587-24.122-9.46-31.881.487-1.777-.328-3.679-1.993-4.468-2.787-1.321-4.234-3.286-4.905-5.391-23.504 12.11-39.589 36.599-39.589 64.86 0 40.282 32.655 72.937 72.936 72.937 18.427-.001 35.246-6.849 48.084-18.12z" fill="#d3dcfb"/><g><path d="m423.993 97.516h57.929c0-40.282-32.655-72.937-72.937-72.937v57.929c8.041.555 14.453 6.967 15.008 15.008z" fill="#ff4155"/></g><g fill="#d3dcfb"><path d="m336.485 272.232-21.285-21.285c-1.413-1.414-3.33-2.207-5.329-2.207h-153.841v57.644h153.84c1.999 0 3.916-.794 5.329-2.207l21.285-21.285c2.944-2.945 2.944-7.716.001-10.66z"/><path d="m336.485 356.39-21.285-21.285c-1.413-1.413-3.33-2.207-5.329-2.207h-153.841v57.644h153.84c1.999 0 3.916-.794 5.329-2.207l21.285-21.285c2.944-2.945 2.944-7.717.001-10.66z"/><path d="m336.485 440.547-21.285-21.285c-1.413-1.413-3.33-2.207-5.329-2.207h-153.841v57.644h153.84c1.999 0 3.916-.794 5.329-2.207l21.285-21.285c2.944-2.945 2.944-7.717.001-10.66z"/></g><path d="m210.276 277.561c0-15.918 12.904-28.822 28.822-28.822h-83.068v57.644h83.068c-15.918 0-28.822-12.904-28.822-28.822z" fill="#bec8f7"/><path d="m210.276 361.719c0-15.918 12.904-28.822 28.822-28.822h-83.068v57.643h83.068c-15.918 0-28.822-12.903-28.822-28.821z" fill="#bec8f7"/><path d="m210.276 445.876c0-15.918 12.904-28.822 28.822-28.822h-83.068v57.644h83.068c-15.918 0-28.822-12.904-28.822-28.822z" fill="#bec8f7"/><path d="m99.976 424.591v35.719c6.587 5.136 13.446 9.936 20.547 14.389h37.596v-57.644h-50.606c-4.162-.001-7.537 3.373-7.537 7.536z" fill="#38c674"/><path d="m158.119 332.897h-50.606c-4.162 0-7.537 3.374-7.537 7.536v42.571c0 4.162 3.374 7.536 7.537 7.536h50.606z" fill="#ffdd40"/><path d="m158.119 248.74h-50.606c-4.162 0-7.537 3.374-7.537 7.536v42.571c0 4.162 3.374 7.536 7.537 7.536h50.606z" fill="#ff4155"/><g><path d="m408.986 179.611c-45.267 0-82.095-36.827-82.095-82.095s36.828-82.095 82.095-82.095 82.094 36.827 82.094 82.095-36.827 82.095-82.094 82.095zm0-145.874c-35.167 0-63.779 28.611-63.779 63.778s28.611 63.778 63.779 63.778 63.778-28.611 63.778-63.778-28.611-63.778-63.778-63.778z" fill="#ffb332"/></g><path d="m465.799 156.692c-.576-.712-1.398-1.224-2.35-1.385-7.448-1.255-9.104-6.393-9.343-9.881-.054-.789-.368-1.497-.841-2.073-11.481 11.094-27.091 17.941-44.28 17.941-35.167 0-63.778-28.611-63.778-63.778 0-25.606 15.176-47.722 36.999-57.863-.365-.68-.924-1.256-1.663-1.606-6.117-2.899-5.822-8.895-4.892-12.681.231-.941.09-1.887-.328-2.696-28.522 12.879-48.433 41.572-48.433 74.847 0 45.268 36.828 82.095 82.095 82.095 22.035-.001 42.053-8.743 56.814-22.92z" fill="#ff9100"/><g><g><path d="m408.986 123.993c-14.6 0-26.477-11.877-26.477-26.477s11.878-26.477 26.477-26.477c14.6 0 26.477 11.877 26.477 26.477s-11.878 26.477-26.477 26.477zm0-34.637c-4.5 0-8.161 3.661-8.161 8.16s3.661 8.16 8.161 8.16 8.16-3.661 8.16-8.16-3.661-8.16-8.16-8.16z" fill="#3c58a0"/></g></g><g><g><path d="m408.986 89.356c-5.058 0-9.158-4.1-9.158-9.158v-27.145c0-5.058 4.1-9.158 9.158-9.158s9.158 4.1 9.158 9.158v27.145c0 5.058-4.1 9.158-9.158 9.158z" fill="#3c58a0"/></g></g></g></svg>